# xmcd CD database file
# 
# Track frame offsets:
# 	183
# 	14338
# 	42155
# 	68983
# 	101958
# 	122105
# 	152550
# 	167790
# 
# Disc length: 2479 seconds
# 
# Submitted via: Nero 5.0
# 
# Revision: 1
# Processed by: cddbd v1.4b41PL1 Copyright (c) Steve Scherf et al.
#
DISCID=6709ad08
DTITLE=Djur Djura - Asirem
DYEAR=1900
DGENRE=
TTITLE0=Igwerdan ad ddun yidi
TTITLE1=Tarewla
TTITLE2=Macci ttarawsa
TTITLE3=Imezyanen
TTITLE4=A nanna
TTITLE5=Muh n muh
TTITLE6=Fsi ner ak-k srerser
TTITLE7=Mrehba yissem a taqcict
EXTD=Philippe
EXTT0=Philippe
EXTT1=Philippe
EXTT2=Philippe
EXTT3=Philippe
EXTT4=Philippe
EXTT5=Philippe
EXTT6=Philippe
EXTT7=Philippe
PLAYORDER=
